<svg id="icon-id" xmlns="http://www.w3.org/2000/svg" viewBox="0 0 16 16"><path d="M8 4a.75.75 0 0 1 .75.75v2.5a.75.75 0 0 1-1.5 0v-2.5a.75.75 0 0 1 .75-.75"/><path d="M8 11a1 1 0 1 0 0-2 1 1 0 0 0 0 2"/><path fill-rule="evenodd" d="M1.5 6.25a4.75 4.75 0 0 1 4.75-4.75h3.5a4.75 4.75 0 0 1 4.75 4.75v2.5a4.75 4.75 0 0 1-4.573 4.747l-1.335 1.714a.75.75 0 0 1-1.189-.007l-1.3-1.706a4.75 4.75 0 0 1-4.603-4.748zm4.75-3.25a3.25 3.25 0 0 0-3.25 3.25v2.5a3.25 3.25 0 0 0 3.25 3.25h.226c.234 0 .455.11.597.296l.934 1.225.96-1.232a.75.75 0 0 1 .591-.289h.192a3.25 3.25 0 0 0 3.25-3.25v-2.5a3.25 3.25 0 0 0-3.25-3.25z"/></svg>